<?xml version="1.0" standalone="no"?>
<!DOCTYPE svg PUBLIC "-//W3C//DTD SVG 20010904//EN"
 "http://www.w3.org/TR/2001/REC-SVG-20010904/DTD/svg10.dtd">
<svg version="1.0" xmlns="http://www.w3.org/2000/svg"
 width="1920.000000pt" height="1920.000000pt" viewBox="0 0 1920.000000 1920.000000"
 preserveAspectRatio="xMidYMid meet">

<g transform="translate(0.000000,1920.000000) scale(0.100000,-0.100000)"
fill="#FFFFFF" stroke="none">
<path d="M4907 14930 c-201 -51 -308 -233 -352 -606 -40 -331 -53 -384 -99
-405 -40 -19 -80 5 -191 111 -231 221 -446 345 -715 411 -84 21 -118 24 -290
23 -179 0 -203 -3 -293 -27 -311 -83 -574 -290 -702 -550 -60 -123 -78 -199
-73 -308 3 -72 9 -97 35 -150 40 -80 77 -116 178 -174 194 -110 419 -169 810
-210 146 -16 255 -40 255 -57 0 -18 -60 -139 -142 -288 -91 -164 -115 -215
-180 -375 -182 -452 -317 -942 -394 -1425 -13 -85 -24 -169 -24 -187 0 -33 -4
-40 -143 -207 -141 -170 -206 -313 -228 -500 -36 -306 90 -631 388 -1001 334
-416 791 -739 1425 -1006 l127 -53 80 -161 c85 -171 185 -328 348 -547 56 -75
108 -149 116 -165 47 -92 102 -314 212 -848 42 -203 92 -442 111 -530 163
-740 321 -1135 496 -1235 115 -65 208 -61 431 20 l116 42 50 -44 c86 -77 197
-98 302 -55 77 32 122 69 168 137 105 158 154 353 277 1095 38 232 46 245 129
211 53 -22 65 -52 91 -223 59 -381 139 -763 194 -938 64 -198 131 -305 222
-351 94 -48 152 -42 327 31 98 41 140 34 305 -50 144 -73 203 -87 269 -66 85
28 179 150 262 339 95 216 275 792 329 1051 14 68 26 124 28 126 4 3 419 45
449 45 24 0 27 -4 33 -52 23 -171 212 -763 301 -944 114 -230 260 -331 441
-304 79 11 132 32 196 74 29 20 63 36 75 36 12 0 72 -16 135 -36 150 -47 255
-50 344 -10 33 15 70 37 82 49 51 47 114 201 171 417 28 106 92 394 88 395 -1
0 -47 -2 -102 -5 -93 -5 -100 -6 -97 -25 11 -89 -7 -111 -123 -153 -62 -22
-105 -30 -190 -35 -60 -4 -162 -11 -225 -17 -105 -10 -303 -1 -375 16 -11 3
-72 8 -135 13 -97 6 -128 13 -199 42 l-84 34 -58 250 c-32 138 -58 257 -59
266 0 13 28 21 133 42 182 35 225 39 288 26 76 -16 85 -15 169 20 123 53 786
235 1037 286 30 6 32 5 51 -48 11 -29 30 -104 41 -165 12 -69 28 -122 40 -139
32 -44 64 -140 171 -506 199 -688 277 -855 435 -933 48 -23 64 -26 130 -22 67
3 85 9 176 55 l101 52 46 -23 c26 -13 88 -39 137 -57 77 -28 104 -33 185 -33
86 -1 99 2 142 26 115 68 181 199 347 688 194 570 292 904 390 1330 175 760
269 1473 287 2180 11 410 -12 698 -112 1414 -24 178 -31 252 -23 256 6 4 38
10 72 13 34 3 97 13 140 22 370 76 647 240 816 483 97 139 74 127 183 98 137
-37 246 -50 367 -43 124 7 200 26 296 74 127 63 206 134 390 349 125 145 167
182 248 219 52 24 63 25 208 23 147 -3 156 -2 203 22 62 31 86 73 86 150 -1
247 -330 600 -705 755 -301 125 -669 133 -944 21 -158 -64 -341 -217 -436
-364 -117 -183 -141 -339 -109 -732 l6 -75 -108 -57 c-309 -161 -531 -173
-826 -43 -216 95 -293 160 -403 339 -402 656 -1166 1153 -2152 1400 -412 103
-834 159 -1328 174 l-250 8 -135 61 c-232 104 -358 133 -580 133 -249 0 -443
-47 -691 -166 -103 -50 -143 -65 -170 -62 -30 3 -34 7 -37 34 -2 19 22 99 61
211 36 98 77 226 91 284 81 324 39 587 -110 690 -179 123 -469 78 -903 -139
-242 -121 -246 -121 -427 -44 -216 92 -421 132 -774 152 -96 5 -196 10 -221
10 -46 0 -46 0 -92 69 -67 100 -180 231 -304 353 -175 170 -269 219 -428 224
-49 2 -107 -1 -128 -6z m198 -199 c68 -24 144 -75 230 -154 76 -69 175 -189
205 -247 l20 -39 -53 -19 c-28 -11 -115 -33 -192 -50 -77 -17 -198 -49 -270
-72 -71 -23 -158 -44 -192 -47 l-61 -6 -7 46 c-4 25 -5 121 -3 214 4 142 8
176 26 223 57 146 161 199 297 151z m-1672 -456 c243 -42 498 -167 659 -323
59 -57 128 -146 128 -165 0 -4 -69 -59 -153 -122 -92 -69 -166 -133 -185 -159
-18 -24 -76 -91 -130 -148 -54 -57 -107 -118 -117 -135 l-19 -33 -131 0 c-267
0 -724 91 -931 185 -160 73 -205 157 -174 326 27 146 161 325 325 434 116 77
209 114 380 149 51 10 270 5 348 -9z m4607 -117 c74 -33 120 -107 119 -193 0
-89 -31 -174 -113 -320 -79 -141 -119 -195 -142 -195 -16 0 -98 68 -226 187
-53 50 -153 130 -221 177 -68 48 -134 97 -146 110 l-22 23 48 42 c62 53 226
134 328 162 141 38 296 41 375 7z m-1742 -72 c545 -82 1014 -307 1357 -651
416 -415 614 -920 691 -1760 47 -523 17 -1794 -47 -1970 -12 -33 -25 -63 -29
-68 -3 -4 -25 30 -48 75 -117 231 -391 506 -717 721 -155 102 -427 236 -584
287 -224 73 -298 82 -786 90 -288 5 -443 11 -470 19 -22 7 -141 61 -265 121
-236 114 -376 167 -531 201 -253 55 -530 71 -759 45 -429 -50 -888 -188 -1103
-330 -30 -20 -56 -36 -58 -36 -11 0 12 209 35 325 100 492 292 1044 518 1487
320 628 784 1052 1414 1291 186 71 445 134 644 156 52 6 109 13 125 15 71 10
515 -3 613 -18z m2983 -966 c307 -63 558 -249 690 -511 104 -209 110 -435 12
-548 -106 -125 -440 -120 -990 15 -252 61 -533 158 -533 183 0 19 -67 231
-146 461 l-56 165 37 32 c109 94 365 185 610 216 96 12 283 6 376 -13z m1937
-330 c111 -22 524 -139 604 -171 65 -25 114 -61 121 -89 4 -15 -9 -34 -54 -77
-184 -176 -310 -482 -325 -788 -13 -247 57 -462 200 -614 17 -18 83 -79 146
-135 139 -122 146 -129 172 -185 30 -64 20 -145 -51 -424 -68 -267 -76 -329
-61 -450 22 -183 84 -317 204 -444 116 -124 257 -203 452 -254 85 -23 105 -24
409 -24 344 0 367 -3 434 -53 18 -14 42 -45 53 -70 26 -59 20 -148 -22 -321
-51 -208 -38 -282 64 -387 l51 -52 105 -6 c58 -4 131 -9 163 -13 l57 -6 0
-102 c0 -121 -21 -344 -55 -580 -28 -192 -93 -559 -105 -591 -7 -17 -20 -22
-65 -27 -32 -3 -78 -12 -104 -20 -25 -8 -77 -22 -116 -31 -88 -21 -192 -70
-271 -128 -145 -108 -213 -254 -184 -394 18 -85 43 -130 121 -211 105 -109
120 -165 75 -285 -34 -90 -48 -174 -36 -223 9 -42 58 -95 87 -95 23 0 93 -79
93 -104 0 -36 -44 -99 -95 -138 -38 -29 -62 -38 -105 -43 -30 -4 -143 -23
-250 -42 -193 -36 -198 -36 -500 -39 l-304 -3 -72 34 c-40 18 -79 44 -88 57
-20 31 -365 1271 -405 1457 -17 79 -38 159 -48 179 -18 35 -68 81 -78 71 -2
-3 2 -124 10 -269 9 -144 13 -265 11 -267 -9 -9 -325 -106 -533 -163 -488
-135 -998 -228 -1478 -269 -190 -16 -218 -17 -223 -2 -7 22 53 445 108 756 6
33 14 124 17 203 7 158 3 166 -55 117 -57 -48 -63 -67 -162 -605 -127 -687
-299 -1323 -364 -1351 -12 -5 -140 -30 -286 -56 -262 -46 -268 -47 -485 -47
-196 -1 -230 2 -310 22 -49 12 -108 33 -130 45 -38 21 -41 28 -63 107 -54 204
-218 1070 -332 1754 -36 215 -65 363 -73 368 -6 4 -22 8 -34 8 -30 0 -37 -37
-35 -195 1 -144 16 -282 67 -612 41 -262 61 -440 53 -449 -9 -8 -154 11 -288
37 -709 141 -1504 637 -1989 1242 -169 210 -337 507 -287 507 7 0 138 -24 291
-54 570 -111 692 -126 1095 -133 413 -7 1028 27 1180 67 41 10 173 35 292 55
334 55 486 100 639 189 280 164 431 492 398 861 -22 245 -22 403 0 594 12 102
23 186 24 188 15 14 158 63 186 63 88 1 211 70 322 180 78 76 112 140 164 300
48 146 75 200 133 263 64 68 156 128 372 242 357 188 400 231 515 510 94 229
168 305 435 450 69 37 153 87 187 111 203 145 288 391 267 774 -10 182 -10
259 -1 283 8 22 27 21 145 -3z m4760 -426 c323 -48 602 -211 750 -437 46 -70
100 -192 90 -202 -3 -3 -56 -9 -119 -14 -278 -23 -391 -81 -534 -276 -125
-170 -197 -238 -326 -309 -237 -130 -489 -133 -654 -8 -150 114 -221 297 -212
547 5 141 24 220 78 327 143 284 515 434 927 372z m-1033 -1273 c8 -28 -12
-108 -42 -164 -121 -220 -586 -455 -883 -445 l-82 3 -90 278 c-49 154 -87 282
-84 285 6 6 46 -5 231 -63 95 -29 142 -38 226 -42 159 -8 250 11 424 89 121
55 191 77 247 77 37 1 48 -3 53 -18z m-10310 -80 c267 -40 458 -102 680 -222
268 -144 331 -164 525 -158 312 9 613 2 715 -15 370 -63 653 -187 975 -427
379 -283 661 -697 746 -1097 72 -336 -29 -734 -225 -888 -139 -109 -398 -197
-762 -258 -189 -32 -614 -82 -807 -96 -1057 -71 -2189 198 -2937 700 -153 102
-292 218 -434 360 -294 292 -473 562 -543 817 -29 105 -31 300 -4 388 98 327
417 575 966 753 187 60 501 135 655 155 92 12 330 5 450 -12z m549 -4270 c28
-17 119 -81 203 -143 198 -147 320 -224 528 -328 214 -108 431 -195 651 -259
94 -28 197 -60 228 -71 65 -25 63 -20 46 -175 -13 -114 -78 -518 -88 -544 -4
-11 -30 -36 -57 -55 -48 -35 -53 -36 -136 -36 -48 0 -151 -7 -230 -16 -171
-19 -336 -14 -514 16 -66 11 -136 20 -156 20 -20 0 -66 14 -102 30 -79 36 -91
55 -137 214 -72 248 -227 954 -294 1339 -4 20 -4 37 0 37 4 0 30 -13 58 -29z"/>
<path d="M4684 12760 c-187 -66 -296 -225 -296 -430 0 -278 200 -465 432 -406
152 39 257 149 295 307 50 212 -34 447 -187 523 -64 32 -165 35 -244 6z m53
-142 c61 -30 67 -126 12 -172 -46 -39 -101 -36 -145 8 -64 64 -37 149 56 179
17 6 46 0 77 -15z"/>
<path d="M7108 12271 c-79 -26 -136 -61 -190 -119 -131 -140 -165 -361 -82
-537 36 -77 78 -121 149 -156 61 -30 69 -31 157 -27 73 3 105 10 150 30 152
70 248 236 248 428 0 289 -191 458 -432 381z m45 -181 c40 -45 38 -101 -7
-146 -95 -95 -236 30 -160 141 38 54 120 57 167 5z"/>
<path d="M10523 9405 c-77 -21 -129 -51 -186 -103 -119 -111 -154 -220 -182
-557 -28 -344 -32 -360 -137 -572 -77 -154 -81 -165 -86 -241 -6 -102 14 -148
99 -226 116 -108 198 -111 597 -22 268 60 273 61 751 26 365 -27 570 41 692
231 65 102 87 246 54 357 -38 127 -140 226 -352 341 -174 94 -303 182 -364
249 -30 32 -93 112 -140 178 -143 197 -231 271 -383 320 -101 33 -280 43 -363
19z"/>
<path d="M4803 10601 c-58 -15 -124 -61 -153 -108 -28 -43 -49 -127 -36 -140
3 -3 25 15 49 41 25 27 59 53 82 61 22 7 41 12 43 11 1 -2 -10 -52 -24 -112
-46 -188 -34 -286 44 -368 87 -91 173 -96 252 -17 71 71 94 139 94 276 -1 130
-21 196 -84 268 -62 70 -181 110 -267 88z"/>
<path d="M6103 10296 c-105 -34 -192 -133 -238 -269 -44 -131 -33 -223 38
-319 19 -26 26 -28 90 -28 38 0 87 5 108 12 57 17 113 69 139 130 24 57 49
178 50 245 0 23 5 45 10 48 16 10 48 -4 55 -23 3 -9 26 -39 51 -67 l45 -50 -4
66 c-7 112 -58 198 -142 241 -50 26 -146 32 -202 14z"/>
</g>
</svg>
